{
  "accessors": [
    {
      "bufferView": 2,
      "componentType": 5126,
      "count": 1928,
      "max": [
        0.27459049224853516,
        0.27184194326400757,
        0.028721511363983154
      ],
      "min": [
        -0.27184194326400757,
        -0.27459049224853516,
        -1.6763806343078613e-08
      ],
      "type": "VEC3"
    },
    {
      "bufferView": 2,
      "byteOffset": 23136,
      "componentType": 5126,
      "count": 1928,
      "max": [
        0.9177663326263428,
        0.9177672266960144,
        0.9963590502738953
      ],
      "min": [
        -0.9177668690681458,
        -0.9177669286727905,
        -0.8736830353736877
      ],
      "type": "VEC3"
    },
    {
      "bufferView": 3,
      "componentType": 5126,
      "count": 1928,
      "max": [
        0.9999356269836426,
        0.9999744892120361,
        0.9814155101776123,
        1.0
      ],
      "min": [
        -0.9999221563339233,
        -0.9989073872566223,
        -0.983268678188324,
        1.0
      ],
      "type": "VEC4"
    },
    {
      "bufferView": 1,
      "componentType": 5126,
      "count": 1928,
      "max": [
        0.9936355948448181,
        0.9965481162071228
      ],
      "min": [
        0.002665276639163494,
        0.0004012999124825001
      ],
      "type": "VEC2"
    },
    {
      "bufferView": 1,
      "byteOffset": 15424,
      "componentType": 5126,
      "count": 1928,
      "max": [
        0.9971988797187805,
        0.9971988797187805
      ],
      "min": [
        0.002801120514050126,
        0.002801120514050126
      ],
      "type": "VEC2"
    },
    {
      "bufferView": 0,
      "componentType": 5125,
      "count": 2916,
      "type": "SCALAR"
    }
  ],
  "asset": {
    "extras": {
      "author": "Zaxel (https://sketchfab.com/zaxel)",
      "license": "CC-BY-4.0 (http://creativecommons.org/licenses/by/4.0/)",
      "source": "https://sketchfab.com/3d-models/v2701-jumppad-2018-spring-ue4jam-1ccc8fed930e45fd88b22532bad32ee2",
      "title": "V2701-JumpPad [2018 Spring #ue4jam]"
    },
    "generator": "Sketchfab-12.65.0",
    "version": "2.0"
  },
  "bufferViews": [
    {
      "buffer": 0,
      "byteLength": 11664,
      "name": "floatBufferViews",
      "target": 34963
    },
    {
      "buffer": 0,
      "byteLength": 30848,
      "byteOffset": 11664,
      "byteStride": 8,
      "name": "floatBufferViews",
      "target": 34962
    },
    {
      "buffer": 0,
      "byteLength": 46272,
      "byteOffset": 42512,
      "byteStride": 12,
      "name": "floatBufferViews",
      "target": 34962
    },
    {
      "buffer": 0,
      "byteLength": 30848,
      "byteOffset": 88784,
      "byteStride": 16,
      "name": "floatBufferViews",
      "target": 34962
    }
  ],
  "buffers": [
    {
      "byteLength": 119632,
      "uri": "scene.bin"
    }
  ],
  "images": [
    {
      "uri": "textures/jumppad_baseColor.png"
    },
    {
      "uri": "textures/jumppad_metallicRoughness.png"
    },
    {
      "uri": "textures/jumppad_emissive.png"
    },
    {
      "uri": "textures/jumppad_normal.png"
    }
  ],
  "materials": [
    {
      "doubleSided": true,
      "emissiveFactor": [
        1.0,
        1.0,
        1.0
      ],
      "emissiveTexture": {
        "index": 2
      },
      "name": "jumppad",
      "normalTexture": {
        "index": 3
      },
      "occlusionTexture": {
        "index": 1
      },
      "pbrMetallicRoughness": {
        "baseColorTexture": {
          "index": 0
        },
        "metallicRoughnessTexture": {
          "index": 1
        }
      }
    }
  ],
  "meshes": [
    {
      "name": "Plane.039_jumppad_0",
      "primitives": [
        {
          "attributes": {
            "NORMAL": 1,
            "POSITION": 0,
            "TANGENT": 2,
            "TEXCOORD_0": 3,
            "TEXCOORD_1": 4
          },
          "indices": 5,
          "material": 0,
          "mode": 4
        }
      ]
    }
  ],
  "nodes": [
    {
      "children": [
        1
      ],
      "matrix": [
        1.41323721408844,
        0.0,
        0.0,
        0.0,
        0.0,
        3.1380169886761954e-16,
        -1.41323721408844,
        0.0,
        0.0,
        1.41323721408844,
        3.1380169886761954e-16,
        0.0,
        0.0,
        0.0,
        0.0,
        1.0
      ],
      "name": "Sketchfab_model"
    },
    {
      "children": [
        2
      ],
      "matrix": [
        1.0,
        0.0,
        0.0,
        0.0,
        0.0,
        0.0,
        1.0,
        0.0,
        0.0,
        -1.0,
        0.0,
        0.0,
        0.0,
        0.0,
        0.0,
        1.0
      ],
      "name": "jumpPad.fbx"
    },
    {
      "children": [
        3
      ],
      "name": "RootNode"
    },
    {
      "children": [
        4
      ],
      "matrix": [
        100.0,
        0.0,
        0.0,
        0.0,
        0.0,
        -1.629206793918314e-05,
        -99.99999999999868,
        0.0,
        0.0,
        99.99999999999868,
        -1.629206793918314e-05,
        0.0,
        0.0,
        100.0,
        0.0,
        1.0
      ],
      "name": "Plane.039"
    },
    {
      "mesh": 0,
      "name": "Plane.039_jumppad_0"
    }
  ],
  "samplers": [
    {
      "magFilter": 9729,
      "minFilter": 9987,
      "wrapS": 10497,
      "wrapT": 10497
    }
  ],
  "scene": 0,
  "scenes": [
    {
      "name": "Sketchfab_Scene",
      "nodes": [
        0
      ]
    }
  ],
  "textures": [
    {
      "sampler": 0,
      "source": 0
    },
    {
      "sampler": 0,
      "source": 1
    },
    {
      "sampler": 0,
      "source": 2
    },
    {
      "sampler": 0,
      "source": 3
    }
  ]
}
